<?xml version="1.0" encoding="UTF-8"?>
<svg id="Layer_1" data-name="Layer 1" xmlns="http://www.w3.org/2000/svg" viewBox="0 0 1080 1080">
  <defs>
    <style>
      .cls-1 {
        fill: #007dc9;
      }

      .cls-1, .cls-2, .cls-3, .cls-4, .cls-5, .cls-6, .cls-7 {
        stroke-width: 0px;
      }

      .cls-2 {
        fill: #00b1ff;
      }

      .cls-3 {
        fill: #1fc5ff;
      }

      .cls-4 {
        fill: #009bbf;
      }

      .cls-5 {
        fill: #0080ff;
      }

      .cls-6 {
        fill: #0067bc;
      }

      .cls-7 {
        fill: #012242;
      }
    </style>
  </defs>
  <g>
    <rect class="cls-3" y="392.5921" width="128.1808" height="128.1808"/>
    <rect class="cls-5" x="166.6351" y="559.2271" width="128.1808" height="128.1808"/>
    <polygon class="cls-6" points="294.8159 687.4079 166.6351 687.4079 166.6351 559.2271 294.8159 687.4079"/>
    <rect class="cls-3" x="166.6351" y="392.5921" width="128.1808" height="128.1808"/>
    <polygon class="cls-4" points="166.6351 520.7729 294.8159 520.7729 294.8159 392.5921 166.6351 520.7729"/>
    <g>
      <rect class="cls-2" x="0" y="559.2271" width="128.1808" height="128.1808" transform="translate(128.1808 1246.6351) rotate(180)"/>
      <polygon class="cls-1" points="0 687.4079 128.1808 687.4079 128.1808 559.2271 0 687.4079"/>
    </g>
  </g>
  <g>
    <path class="cls-7" d="M407.6718,509.4385c16.197,0,28.3755-4.0775,36.5329-12.235,8.1551-8.1563,12.235-19.8963,12.235-35.2201v-21.2374c0-15.3815-4.094-27.2524-12.2798-35.6137-8.1857-8.359-20.35-12.5402-36.4881-12.5402s-28.3012,4.1813-36.4858,12.5402c-8.1869,8.3613-12.2798,20.2322-12.2798,35.6137v21.2374c0,15.3238,4.0646,27.0638,12.1914,35.2201,8.128,8.1574,20.3205,12.235,36.5742,12.235ZM386.7844,439.3483c0-7.8074,1.7182-13.8094,5.157-18.0037,3.4365-4.1954,8.6807-6.2931,15.7304-6.2931s12.2939,2.0977,15.7327,6.2931c3.4365,4.1942,5.1547,10.1962,5.1547,18.0037v23.9456c0,7.4586-1.7182,13.2556-5.1547,17.392-3.4388,4.1376-8.683,6.2047-15.7327,6.2047s-12.2939-2.0671-15.7304-6.2047c-3.4388-4.1365-5.157-9.9334-5.157-17.392v-23.9456Z"/>
    <path class="cls-7" d="M525.4822,418.8097c-5.5931,0-10.1962.918-13.8094,2.7529-3.6132,1.8361-6.4392,4.3121-8.478,7.4291-2.0388,3.1171-3.4954,6.5983-4.3698,10.4437h-.8772l.7028-18.6153h-26.5677v115.9731h26.5677v-29.1898l-.5916-19.4897h.8532c.8744,4.1376,2.3452,7.765,4.4146,10.8809,2.0671,3.1171,4.8506,5.5212,8.346,7.2099,3.4954,1.6888,7.8063,2.5349,12.935,2.5349,10.604,0,18.4833-3.3787,23.6403-10.1385,5.157-6.7574,7.7332-16.7498,7.7332-29.9758v-10.4873c0-13.1094-2.5762-22.9415-7.7332-29.4962-5.157-6.5547-12.7465-9.8321-22.7659-9.8321ZM529.152,469.4985c0,5.7109-1.268,10.0077-3.8018,12.8914s-6.2483,4.3262-11.1437,4.3262c-3.262,0-6.0739-.6564-8.4332-1.9669-2.3593-1.3105-4.1648-3.1901-5.4187-5.6367-1.2539-2.4477-1.9374-5.4469-2.0529-9.0024v-19.5198c.6971-1.74,1.6627-3.3238,2.9273-4.7322,1.5438-1.717,3.4365-3.1018,5.6803-4.1506s4.7328-1.5733,7.4739-1.5733c4.8931,0,8.577,1.4283,11.0542,4.2826,2.4748,2.8555,3.7146,7.1369,3.7146,12.8466v12.235Z"/>
    <path class="cls-7" d="M578.1792,465.1723c4.1954,2.3028,9.8757,4.2979,17.0432,5.9867,4.7776,1.1078,8.4898,2.0694,11.1437,2.8849,2.6492.8167,4.5136,1.7335,5.5931,2.7529,1.0771,1.0194,1.6169,2.3157,1.6169,3.889v.3488c0,2.2721-1.0653,3.9479-3.1913,5.025-2.126,1.0795-5.7227,1.6169-10.7925,1.6169-6.352,0-12.2515-.7424-17.6984-2.2285-5.4469-1.4849-10.4131-3.1595-14.9007-5.025l2.2721,22.4607c3.9031,1.5733,8.5935,2.958,14.0711,4.1518,5.4752,1.1926,11.6245,1.7913,18.4409,1.7913,12.8761,0,22.4312-2.258,28.6654-6.7727,6.2342-4.5148,9.3501-11.4053,9.3501-20.6694v-.786c0-5.2442-1.0182-9.4526-3.057-12.6286-2.0411-3.176-5.2749-5.7687-9.7013-7.7792-4.4287-2.0093-10.2551-3.8018-17.4792-5.3739-4.6621-1.1066-8.2305-2.0977-10.7053-2.9721-2.4772-.8733-4.1813-1.8054-5.1123-2.7965-.9334-.9899-1.4-2.1849-1.4-3.5826v-.2628c0-1.281.3936-2.3593,1.1808-3.2338.7872-.8733,2.1543-1.5426,4.1082-2.0093,1.9516-.4655,4.6456-.7,8.082-.7,5.652,0,11.0565.6116,16.2135,1.8361,5.1547,1.2233,9.8309,2.7671,14.0263,4.6314l-2.2721-20.8874c-3.6132-1.6888-8.0702-3.1465-13.371-4.3698-5.3032-1.2233-11.2757-1.8349-17.9176-1.8349-11.7683,0-20.6823,2.1118-26.7421,6.3355-6.0597,4.226-9.0884,10.5898-9.0884,19.0961v.6988c0,4.6031.8862,8.5805,2.6657,11.9298,1.7771,3.3516,4.7634,6.1764,8.9565,8.4768Z"/>
    <path class="cls-7" d="M431.793,663.9868c3.7876-.6411,7.1958-1.7607,10.2269-3.3657,3.0287-1.6004,5.6072-3.7264,7.7332-6.3779s3.7594-5.8571,4.8954-9.614c1.1361-3.7594,1.7041-8.0844,1.7041-12.9774v-15.1199c0-10.2551-1.8219-18.95-5.4634-26.0869-3.6415-7.1369-9.0743-12.5697-16.2984-16.3008-7.2264-3.7264-16.1994-5.5931-26.9189-5.5931-16.1381,0-28.3012,4.1813-36.4858,12.5414-8.1869,8.3625-12.2798,20.2039-12.2798,35.5265v20.2746c0,15.6149,4.3109,27.4138,12.935,35.3969,8.6218,7.983,22.7518,12.3788,42.3853,13.1966l48.4167,1.9209v-23.4211l-30.8503,1.0488v-1.0488ZM428.5592,636.8063c0,3.7311-.3913,7.0662-1.1785,10.0077-.7872,2.9415-1.8785,5.4611-3.2785,7.5588-1.3977,2.0977-3.0287,3.8466-4.8931,5.2442s-3.9338,2.4182-6.2059,3.0593l-2.8826-.0872c-7.1675-.2333-12.8478-2.4182-17.0432-6.5547-4.1954-4.1365-6.2931-10.1373-6.2931-18.0048v-22.5467c0-7.8652,1.7182-13.8966,5.157-18.092,3.4365-4.193,8.6807-6.2907,15.7304-6.2907s12.2939,2.0977,15.7327,6.2907c3.4365,4.1954,5.1547,10.2269,5.1547,18.092v21.3234Z"/>
    <path class="cls-7" d="M526.5311,652.5427c-.6846,1.6546-1.5621,3.2165-2.7529,4.6277-1.4283,1.6899-3.1772,3.0287-5.2442,4.0186-2.0694.9923-4.5018,1.4872-7.2972,1.4872-3.321,0-5.9443-.627-7.8652-1.8785-1.9233-1.2539-3.2927-3.0287-4.1082-5.3314-.8179-2.3004-1.2233-5.025-1.2233-8.1716v-50.5144h-26.7444v54.797c0,7.3396.9758,13.4583,2.9297,18.3513,1.9492,4.8954,4.9803,8.5817,9.0884,11.0565,4.1082,2.4748,9.3359,3.7146,15.6879,3.7146,5.7675,0,10.5003-.9051,14.2007-2.7105,3.6981-1.8054,6.6113-4.2826,8.7396-7.4268,2.126-3.1465,3.6556-6.6419,4.589-10.4885h.9316l-.7572,18.6153h26.5677v-85.9089h-26.7421v55.7623Z"/>
    <path class="cls-7" d="M638.046,604.6456c-3.0311-3.2031-7.078-5.6803-12.1478-7.4291-5.0698-1.7465-11.3606-2.6209-18.8769-2.6209-4.721,0-9.1474.3488-13.2838,1.0488-4.1388.7-7.91,1.6169-11.3181,2.7529-3.4082,1.1361-6.4816,2.3452-9.2204,3.6274l-2.2721,20.713c4.6008-1.8644,9.4962-3.526,14.6815-4.9826,5.1853-1.4566,10.6629-2.1849,16.4304-2.1849,6.583,0,11.2734,1.1361,14.0711,3.4082,2.4082,1.9558,3.7146,4.8988,4.0496,8.7115l-20.6544,2.7386c-11.3606,1.4566-19.65,4.2095-24.8636,8.2588-5.216,4.0493-7.8228,10.2976-7.8228,18.7449v2.3593c0,7.983,2.2132,14.13,6.6419,18.4409,4.4287,4.3132,10.9245,6.4675,19.4897,6.4675,5.9419,0,10.7501-.8744,14.4199-2.6233,3.6698-1.7465,6.4816-4.1341,8.4332-7.1652,1.9516-3.0287,3.394-6.4086,4.3274-10.1373h.8302l-.6558,17.9153h26.3061v-51.8249c0-5.3597-.6717-10.2693-2.0105-14.7263-1.3411-4.457-3.526-8.2871-6.5547-11.4925ZM617.333,659.3106c-1.5155,1.6027-3.4529,2.8991-5.8123,3.889-2.3593.9923-5.1712,1.4872-8.4332,1.4872-3.7287,0-6.4392-.7731-8.1268-2.3169-1.6899-1.5438-2.5361-3.6274-2.5361-6.2483v-.6128c0-2.7364.8461-4.8058,2.5361-6.2035,1.6876-1.4,4.6008-2.3593,8.7396-2.8849l16.7792-2.4387v10.5495c-.7489,1.744-1.7863,3.3431-3.1465,4.7795Z"/>
    <path class="cls-7" d="M717.7514,592.9338l.3147,22.4618h-.9275c-.8155-4.1954-2.258-7.8369-4.325-10.9245-2.0694-3.0876-4.8223-5.4752-8.2588-7.1675-3.4388-1.6876-7.7214-2.5337-12.8478-2.5337-10.4885,0-18.3254,3.3799-23.5083,10.1373-5.1877,6.7598-7.778,16.7509-7.778,29.9782v10.5733c0,12.9939,2.5762,22.7824,7.7332,29.3654,5.157,6.5854,12.7441,9.8757,22.7659,9.8757,5.5931,0,10.1962-.9051,13.8094-2.7105,3.6109-1.8054,6.4369-4.2826,8.478-7.4268,2.0388-3.1465,3.4954-6.6419,4.3698-10.4885h.8459l-.6714,18.6153h26.5677v-115.4487h-26.5677v25.6932ZM715.2601,657.0833c-1.4849,1.7465-3.2927,3.1159-5.4187,4.1058-2.1283.9923-4.5301,1.4872-7.2099,1.4872-5.0698,0-8.8999-1.4425-11.4925-4.3274-2.5927-2.8826-3.889-7.151-3.889-12.803v-12.3222c0-5.7086,1.2798-9.9912,3.8442-12.8478,2.5644-2.8543,6.2931-4.2826,11.1885-4.2826,3.262,0,6.0433.6576,8.346,1.9681,2.3004,1.3105,4.0917,3.189,5.3739,5.6355,1.2822,2.4489,1.9798,5.4493,2.0977,9.0036v19.6192c-.6882,1.7411-1.6263,3.3339-2.8401,4.7636Z"/>
    <path class="cls-7" d="M816.2017,595.6443c-1.0795-.1744-2.2603-.2616-3.5402-.2616-7.4009,0-13.1236,2.0246-17.1728,6.0739-4.0493,4.0493-6.7739,9.6282-8.1716,16.7344h-.8862l.8862-21.4106h-25.17v85.9089h26.7421v-49.1608c1.8152-3.3874,4.4659-6.0913,8.042-8.038,3.9031-2.1283,8.709-3.1913,14.4199-3.1913,1.6876,0,3.3492.0731,4.9803.2192,1.631.1461,3.0593.3936,4.2826.7424l-1.3105-27.0061c-.9923-.231-2.0246-.436-3.1018-.6105Z"/>
    <path class="cls-7" d="M896.4728,604.6456c-3.0311-3.2031-7.078-5.6803-12.1478-7.4291-5.0698-1.7465-11.3606-2.6209-18.8769-2.6209-4.721,0-9.1474.3488-13.2838,1.0488-4.1388.7-7.91,1.6169-11.3181,2.7529-3.4082,1.1361-6.4816,2.3452-9.2204,3.6274l-2.2721,20.713c4.6008-1.8644,9.4962-3.526,14.6815-4.9826,5.1853-1.4566,10.6629-2.1849,16.4304-2.1849,6.583,0,11.2734,1.1361,14.0711,3.4082,2.4082,1.9558,3.7146,4.8988,4.0496,8.7115l-20.6544,2.7386c-11.3606,1.4566-19.65,4.2095-24.8636,8.2588-5.216,4.0493-7.8228,10.2976-7.8228,18.7449v2.3593c0,7.983,2.2132,14.13,6.6419,18.4409,4.4287,4.3132,10.9245,6.4675,19.4897,6.4675,5.9419,0,10.7501-.8744,14.4199-2.6233,3.6698-1.7465,6.4816-4.1341,8.4332-7.1652,1.9516-3.0287,3.394-6.4086,4.3274-10.1373h.8302l-.6558,17.9153h26.3061v-51.8249c0-5.3597-.6717-10.2693-2.0105-14.7263-1.3411-4.457-3.526-8.2871-6.5547-11.4925ZM875.7598,659.3106c-1.5155,1.6027-3.4529,2.8991-5.8123,3.889-2.3593.9923-5.1712,1.4872-8.4332,1.4872-3.7287,0-6.4392-.7731-8.1268-2.3169-1.6899-1.5438-2.5361-3.6274-2.5361-6.2483v-.6128c0-2.7364.8461-4.8058,2.5361-6.2035,1.6876-1.4,4.6008-2.3593,8.7396-2.8849l16.7792-2.4387v10.5495c-.7489,1.744-1.7863,3.3431-3.1465,4.7795Z"/>
    <path class="cls-7" d="M991.6446,598.4845c-4.0799-2.4748-9.3241-3.7146-15.7327-3.7146-5.7086,0-10.4296.9169-14.1559,2.7529-3.7311,1.8361-6.6584,4.2967-8.7844,7.3844-2.1283,3.09-3.6556,6.5854-4.589,10.4885h-.9316l.7572-18.6153h-26.5677v85.9089h26.7421v-55.9241c.6794-1.6462,1.5874-3.1542,2.7529-4.5084,1.4283-1.6617,3.1913-2.9721,5.289-3.9338,2.0977-.9616,4.5136-1.4425,7.2524-1.4425,3.321,0,5.9443.6128,7.8652,1.8361,1.9233,1.2233,3.2927,2.9863,4.1082,5.2867.8155,2.3028,1.2233,5.025,1.2233,8.1716v50.5144h26.7444v-54.797c0-7.3396-.9781-13.4583-2.9297-18.3513-1.9516-4.8954-4.9661-8.5793-9.0437-11.0565Z"/>
    <path class="cls-7" d="M1072.3964,660.6659c-2.7954.6411-5.6237.9616-8.4756.9616-5.1877,0-8.7278-.9758-10.6205-2.9273-1.8926-1.9516-2.8401-5.025-2.8401-9.2204v-31.3759h26.3933l2.3593-20.9746h-29.4626l.8868-22.8083-26.4828,2.5337.0819,20.2746h-11.8785v20.9746h11.535v35.6585c0,6.7598.9899,12.44,2.9721,17.0408,1.9798,4.6031,5.2277,8.0561,9.7437,10.3565,4.5159,2.3004,10.5898,3.4529,18.2217,3.4529,4.5442,0,8.7538-.3936,12.6286-1.1808,3.8748-.7872,7.2972-1.8196,10.2693-3.1018l2.2721-22.1107c-2.2721.9899-4.8058,1.8054-7.6036,2.4465Z"/>
  </g>
</svg>